<svg width="24" height="24" viewBox="0 0 24 24" fill="none" xmlns="http://www.w3.org/2000/svg">
<path d="M17.472 14.382C17.367 14.382 17.15 14.277 16.717 14.067C16.284 13.857 14.827 13.143 14.394 12.933C13.961 12.723 13.638 12.618 13.315 13.051C12.992 13.484 12.383 14.172 12.06 14.495C11.737 14.818 11.414 14.858 10.981 14.648C10.548 14.438 9.26 14.018 7.717 12.648C6.53 11.582 5.823 10.267 5.5 9.834C5.177 9.401 5.46 9.108 5.67 8.898C5.86 8.708 6.103 8.398 6.313 8.075C6.523 7.752 6.628 7.509 6.838 7.186C7.048 6.863 6.943 6.54 6.838 6.33C6.733 6.12 5.823 4.663 5.39 3.797C4.957 2.931 4.524 3.041 4.201 3.041C3.878 3.041 3.555 3.041 3.232 3.041C2.909 3.041 2.371 3.146 1.938 3.579C1.505 4.012 0.791 4.726 0.791 6.183C0.791 7.64 1.938 9.057 2.148 9.38C2.358 9.703 5.823 14.648 11.414 16.535C12.628 17.039 13.575 17.329 14.315 17.539C15.529 17.929 16.638 17.869 17.522 17.749C18.511 17.619 19.648 16.995 19.871 16.315C20.094 15.635 20.094 15.065 19.989 14.905C19.884 14.745 19.561 14.64 19.128 14.43C18.695 14.22 17.577 14.382 17.472 14.382ZM12.04 21.814H12.035C10.229 21.814 8.463 21.324 6.928 20.404L6.548 20.184L2.838 21.184L3.858 17.584L3.618 17.184C2.628 15.604 2.098 13.794 2.098 11.924C2.098 6.504 6.618 2.004 12.04 2.004C14.67 2.004 17.15 3.044 19.048 4.944C20.946 6.844 21.984 9.324 21.984 11.954C21.984 17.374 17.464 21.874 12.04 21.874V21.814ZM20.452 3.492C18.302 1.342 15.312 0.162 12.04 0.162C5.448 0.162 0.098 5.512 0.098 12.104C0.098 14.314 0.688 16.464 1.798 18.334L0 24L5.828 22.254C7.628 23.274 9.808 23.814 12.04 23.814C18.632 23.814 23.982 18.464 23.982 11.872C23.982 8.6 22.802 5.61 20.652 3.46L20.452 3.492Z" fill="currentColor"/>
</svg>